<svg xmlns="http://www.w3.org/2000/svg" version="1.1" xmlns:xlink="http://www.w3.org/1999/xlink" xmlns:svgjs="http://svgjs.dev/svgjs" width="2000" height="1500" viewBox="0 0 2000 1500"><rect width="2000" height="1500" fill="#ffffff"></rect><g transform="matrix(0.75,0,0,0.75,249.090909090909,282.7536437246963)"><svg viewBox="0 0 396 247" data-background-color="#ffffff" preserveAspectRatio="xMidYMid meet" height="1247" width="2000" xmlns="http://www.w3.org/2000/svg" xmlns:xlink="http://www.w3.org/1999/xlink"><g id="tight-bounds" transform="matrix(1,0,0,1,0.2400000000000091,-0.09999999999999432)"><svg viewBox="0 0 395.52 247.2" height="247.2" width="395.52"><g><svg></svg></g><g><svg viewBox="0 0 395.52 247.2" height="247.2" width="395.52"><g transform="matrix(1,0,0,1,114.11558322192303,47.215199999999996)"><svg viewBox="0 0 167.28883355615392 152.7696" height="152.7696" width="167.28883355615392"><g><svg viewBox="0 0 244.43135999999998 223.216817888335" height="152.7696" width="167.28883355615392"><g transform="matrix(1,0,0,1,0,160.52195755689795)"><svg viewBox="0 0 244.43135999999998 62.69486033143705" height="62.69486033143705" width="244.43135999999998"><g id="textblocktransform"><svg viewBox="0 0 244.43135999999998 62.69486033143705" height="62.69486033143705" width="244.43135999999998" id="textblock"><g><svg viewBox="0 0 244.43135999999998 62.69486033143705" height="62.69486033143705" width="244.43135999999998"><g transform="matrix(1,0,0,1,0,0)"><svg width="244.43135999999998" viewBox="1.3 -35.85 205.82999999999998 51.85" height="62.69486033143705" data-palette-color="#7e91c6"><g class="wordmark-text-0" data-fill-palette-color="primary" id="text-0"><path d="M12.85-20.95L12.85-20.95Q13.05-20.95 13.6-20.55 14.15-20.15 14.75-20.15L14.75-20.15 14.8-20.15Q16.5-20.15 17.5-21.5 18.5-22.85 18.6-24.2L18.6-24.2 18.75-25.55Q18.75-27.45 18.18-28.83 17.6-30.2 16.85-30.88 16.1-31.55 15.1-31.9L15.1-31.9Q13.85-32.4 12.48-32.4 11.1-32.4 10.25-32.13 9.4-31.85 9.3-31.6L9.3-31.6 9.25-31.3Q8.8-24.55 8.8-19.23 8.8-13.9 8.97-10.05 9.15-6.2 9.33-4.13 9.5-2.05 9.5-1.85L9.5-1.85Q9.5-0.6 7.3 0.15 5.1 0.9 2.95 0.9L2.95 0.9Q1.95 0.9 1.95 0.4L1.95 0.4Q1.95 0.25 2.1-0.3L2.1-0.3Q3.05-2.5 3.05-20.75L3.05-20.75Q3.05-31.5 1.6-33.05L1.6-33.05Q1.3-33.35 1.3-33.68 1.3-34 2.02-34.4 2.75-34.8 6.1-35.33 9.45-35.85 13.2-35.85L13.2-35.85Q19.1-35.85 22.08-32.65 25.05-29.45 25.05-25.03 25.05-20.6 22.63-17.35 20.2-14.1 16.3-14.1L16.3-14.1Q15.05-14.1 13.8-14.55L13.8-14.55Q11.3-15.45 11.3-18.3L11.3-18.3Q11.3-18.9 11.7-19.93 12.1-20.95 12.85-20.95ZM41.75-17.2L41.5-13.4 41.7-11.65Q41.7-10.7 39.9-10.7L39.9-10.7Q36.25-10.7 36.25-13.45L36.25-13.45Q36.25-14.1 36.6-15.25 36.95-16.4 36.95-17.25 36.95-18.1 36.45-18.73 35.95-19.35 35-19.35 34.05-19.35 33.37-18.68 32.7-18 32.55-17.3L32.55-17.3 32.35-16.6Q32.05-15.05 32.05-11.43 32.05-7.8 32.15-5.73 32.25-3.65 32.35-2.88 32.45-2.1 32.45-1.95L32.45-1.95Q32.45-0.7 30.9 0.08 29.35 0.85 27.8 0.85 26.25 0.85 26.25 0.2L26.25 0.2 26.5-1.35Q27.2-5.7 27.2-12.7 27.2-19.7 26.7-22.2L26.7-22.2Q26.7-22.8 27.75-22.8L27.75-22.8Q30.45-22.8 31.35-20.95L31.35-20.95Q31.4-20.75 31.52-20.75 31.65-20.75 32.2-21.2L32.2-21.2Q33.85-22.55 36.1-22.55L36.1-22.55Q37.5-22.55 38.9-22L38.9-22Q41.75-20.85 41.75-17.2L41.75-17.2ZM48.9-18.85L48.9-18.85Q47.6-18.8 47.02-18.78 46.45-18.75 46.45-19.05 46.45-19.35 46.75-19.65L46.75-19.65Q49.95-22.6 57.55-22.6L57.55-22.6Q60.15-22.6 61.65-22.15L61.65-22.15 62.15-22Q62.75-21.75 62.75-21.45L62.75-21.45Q62.75-21.2 62.4-21.05L62.4-21.05Q61.05-20.65 59.8-19.78 58.55-18.9 58.55-18.55L58.55-18.55 58.85-18.2Q60.45-17.3 61.32-15.35 62.2-13.4 62.3-11.9L62.3-11.9 62.4-10.35Q62.4-5.4 59.65-2.2 56.9 1 52.15 1L52.15 1Q49.75 1 48 0.15 46.25-0.7 45.42-1.78 44.6-2.85 44.1-4.2L44.1-4.2Q43.5-6.05 43.5-8.03 43.5-10 44.17-12 44.85-14 45.72-14.95 46.6-15.9 47.7-16.5L47.7-16.5Q49.1-17.25 49.95-17.25 50.8-17.25 50.8-16.9L50.8-16.9 50.5-16.4Q49.4-15.1 48.92-13 48.45-10.9 48.45-9.28 48.45-7.65 48.85-6.05 49.25-4.45 49.75-3.68 50.25-2.9 50.9-2.5L50.9-2.5Q51.85-1.9 52.9-1.9 53.95-1.9 54.95-2.73 55.95-3.55 56.4-4.9L56.4-4.9Q57.3-7.4 57.3-10.05L57.3-10.05Q57.3-14.25 55.17-16.55 53.05-18.85 48.9-18.85ZM68.29-20.18Q69.39-21.3 71.19-22.08 72.99-22.85 74.64-22.85 76.29-22.85 77.99-22.1L77.99-22.1Q78.19-22.1 78.29-22.2L78.29-22.2Q79.59-23.5 82.09-23.5L82.09-23.5Q82.69-23.5 82.69-22.95L82.69-22.95Q82.69-22.9 82.59-22.5 82.49-22.1 82.34-21.33 82.19-20.55 82.09-19.45L82.09-19.45Q81.74-16.6 81.72-13.15 81.69-9.7 81.69-6.25L81.69-6.25 81.84 4.25Q81.84 9.3 79.24 12.65L79.24 12.65Q78.19 14 76.07 15 73.94 16 71.09 16L71.09 16Q70.44 15.6 70.44 15.2 70.44 14.8 70.99 14.55L70.99 14.55Q74.14 13.1 75.49 7.68 76.84 2.25 76.84-8.8L76.84-8.8 76.74-15.8 76.59-19.2Q76.59-19.65 75.19-19.85L75.19-19.85Q73.39-19.85 72.17-18.68 70.94-17.5 70.49-15.6L70.49-15.6Q69.69-12.55 69.69-10.33 69.69-8.1 70.42-6.4 71.14-4.7 72.94-4.7L72.94-4.7Q73.44-4.7 73.87-4.9 74.29-5.1 74.44-5.1L74.44-5.1Q74.94-5.1 74.94-4.1 74.94-3.1 74.79-2.48 74.64-1.85 74.19-1.1L74.19-1.1Q73.19 0.55 70.29 0.55L70.29 0.55Q67.39 0.55 66.14-1.55L66.14-1.55Q64.84-3.7 64.64-5.4L64.64-5.4Q64.34-7.95 64.34-8.75 64.34-9.55 64.37-10.03 64.39-10.5 64.62-11.93 64.84-13.35 65.22-14.63 65.59-15.9 66.39-17.48 67.19-19.05 68.29-20.18ZM100.44-17.2L100.19-13.4 100.39-11.65Q100.39-10.7 98.59-10.7L98.59-10.7Q94.94-10.7 94.94-13.45L94.94-13.45Q94.94-14.1 95.29-15.25 95.64-16.4 95.64-17.25 95.64-18.1 95.14-18.73 94.64-19.35 93.69-19.35 92.74-19.35 92.07-18.68 91.39-18 91.24-17.3L91.24-17.3 91.04-16.6Q90.74-15.05 90.74-11.43 90.74-7.8 90.84-5.73 90.94-3.65 91.04-2.88 91.14-2.1 91.14-1.95L91.14-1.95Q91.14-0.7 89.59 0.08 88.04 0.85 86.49 0.85 84.94 0.85 84.94 0.2L84.94 0.2 85.19-1.35Q85.89-5.7 85.89-12.7 85.89-19.7 85.39-22.2L85.39-22.2Q85.39-22.8 86.44-22.8L86.44-22.8Q89.14-22.8 90.04-20.95L90.04-20.95Q90.09-20.75 90.22-20.75 90.34-20.75 90.89-21.2L90.89-21.2Q92.54-22.55 94.79-22.55L94.79-22.55Q96.19-22.55 97.59-22L97.59-22Q100.44-20.85 100.44-17.2L100.44-17.2ZM107.44-12.7L107.44-12.7 107.49-11.45Q107.49-11.15 107.89-11.15L107.89-11.15Q109.49-11.3 110.69-11.98 111.89-12.65 112.49-13.5L112.49-13.5Q113.69-15.35 113.79-16.7L113.79-16.7 113.84-17.3Q113.84-20 111.69-20L111.69-20Q110.09-20 109.09-18.6L109.09-18.6Q107.44-16.4 107.44-12.7ZM118.34-6.05L118.34-6.05Q118.34-4.15 117.56-2.73 116.79-1.3 115.81-0.63 114.84 0.05 113.54 0.45L113.54 0.45Q111.89 0.95 110.39 0.95L110.39 0.95Q106.19 0.95 104.19-2.2 102.19-5.35 102.19-10.23 102.19-15.1 104.66-18.9 107.14-22.7 112.09-22.7L112.09-22.7Q116.59-22.7 118.19-19.55L118.19-19.55Q118.84-18.35 118.84-17.28 118.84-16.2 118.74-15.58 118.64-14.95 118.04-13.7 117.44-12.45 116.44-11.45 115.44-10.45 113.29-9.55 111.14-8.65 108.24-8.35L108.24-8.35Q107.84-8.35 107.84-8L107.84-8Q107.84-7.55 108.16-6.68 108.49-5.8 108.89-5.2L108.89-5.2Q109.99-3.8 112.14-3.8L112.14-3.8Q114.29-3.8 115.79-5.2L115.79-5.2Q116.59-5.95 117.09-7.05L117.09-7.05Q117.29-7.45 117.61-7.45 117.94-7.45 118.14-6.9 118.34-6.35 118.34-6.05ZM136.29-6.85L136.29-6.85Q136.29-4.7 135.46-3.1 134.64-1.5 133.59-0.75 132.54 0 131.09 0.45L131.09 0.45Q129.19 1.05 127.64 1.05L127.64 1.05Q124.39 1.05 122.24-0.23 120.09-1.5 120.09-4.3L120.09-4.3Q120.09-5.95 120.99-7L120.99-7Q122.39-8.55 124.34-8.55L124.34-8.55Q124.94-8.55 124.94-8L124.94-8Q124.94-7.95 124.71-7.23 124.49-6.5 124.49-5.4 124.49-4.3 125.36-3.45 126.24-2.6 127.49-2.6 128.74-2.6 129.49-3.03 130.24-3.45 130.54-4.1L130.54-4.1Q130.99-5 130.99-5.8L130.99-5.8Q130.99-7.25 129.54-8.3 128.09-9.35 126.34-9.95 124.59-10.55 123.14-11.95 121.69-13.35 121.69-15.45L121.69-15.45Q121.69-19.05 123.96-20.85 126.24-22.65 130.14-22.65L130.14-22.65Q131.84-22.65 133.71-22.18 135.59-21.7 135.59-20.58 135.59-19.45 135.21-18.5 134.84-17.55 134.29-17.55L134.29-17.55Q133.99-17.55 133.89-17.78 133.79-18 133.54-18.3 133.29-18.6 132.34-19.07 131.39-19.55 130.71-19.55 130.04-19.55 129.81-19.53 129.59-19.5 129.04-19.38 128.49-19.25 128.04-19L128.04-19Q126.89-18.35 126.89-17.1L126.89-17.1Q126.89-16.3 127.24-15.93 127.59-15.55 127.79-15.35 127.99-15.15 128.49-14.88 128.99-14.6 129.19-14.5 129.39-14.4 130.09-14.08 130.79-13.75 130.99-13.65L130.99-13.65Q136.29-11.15 136.29-6.85ZM153.48-6.85L153.48-6.85Q153.48-4.7 152.66-3.1 151.83-1.5 150.78-0.75 149.73 0 148.28 0.45L148.28 0.45Q146.38 1.05 144.83 1.05L144.83 1.05Q141.58 1.05 139.43-0.23 137.28-1.5 137.28-4.3L137.28-4.3Q137.28-5.95 138.18-7L138.18-7Q139.58-8.55 141.53-8.55L141.53-8.55Q142.13-8.55 142.13-8L142.13-8Q142.13-7.95 141.91-7.23 141.68-6.5 141.68-5.4 141.68-4.3 142.56-3.45 143.43-2.6 144.68-2.6 145.93-2.6 146.68-3.03 147.43-3.45 147.73-4.1L147.73-4.1Q148.18-5 148.18-5.8L148.18-5.8Q148.18-7.25 146.73-8.3 145.28-9.35 143.53-9.95 141.78-10.55 140.33-11.95 138.88-13.35 138.88-15.45L138.88-15.45Q138.88-19.05 141.16-20.85 143.43-22.65 147.33-22.65L147.33-22.65Q149.03-22.65 150.91-22.18 152.78-21.7 152.78-20.58 152.78-19.45 152.41-18.5 152.03-17.55 151.48-17.55L151.48-17.55Q151.18-17.55 151.08-17.78 150.98-18 150.73-18.3 150.48-18.6 149.53-19.07 148.58-19.55 147.91-19.55 147.23-19.55 147.01-19.53 146.78-19.5 146.23-19.38 145.68-19.25 145.23-19L145.23-19Q144.08-18.35 144.08-17.1L144.08-17.1Q144.08-16.3 144.43-15.93 144.78-15.55 144.98-15.35 145.18-15.15 145.68-14.88 146.18-14.6 146.38-14.5 146.58-14.4 147.28-14.08 147.98-13.75 148.18-13.65L148.18-13.65Q153.48-11.15 153.48-6.85ZM166.83-20.95L166.83-20.95Q167.03-20.95 167.58-20.55 168.13-20.15 168.73-20.15L168.73-20.15 168.78-20.15Q170.48-20.15 171.48-21.5 172.48-22.85 172.58-24.2L172.58-24.2 172.73-25.55Q172.73-27.45 172.16-28.83 171.58-30.2 170.83-30.88 170.08-31.55 169.08-31.9L169.08-31.9Q167.83-32.4 166.46-32.4 165.08-32.4 164.23-32.13 163.38-31.85 163.28-31.6L163.28-31.6 163.23-31.3Q162.78-24.55 162.78-19.23 162.78-13.9 162.96-10.05 163.13-6.2 163.31-4.13 163.48-2.05 163.48-1.85L163.48-1.85Q163.48-0.6 161.28 0.15 159.08 0.9 156.93 0.9L156.93 0.9Q155.93 0.9 155.93 0.4L155.93 0.4Q155.93 0.25 156.08-0.3L156.08-0.3Q157.03-2.5 157.03-20.75L157.03-20.75Q157.03-31.5 155.58-33.05L155.58-33.05Q155.28-33.35 155.28-33.68 155.28-34 156.01-34.4 156.73-34.8 160.08-35.33 163.43-35.85 167.18-35.85L167.18-35.85Q173.08-35.85 176.06-32.65 179.03-29.45 179.03-25.03 179.03-20.6 176.61-17.35 174.18-14.1 170.28-14.1L170.28-14.1Q169.03-14.1 167.78-14.55L167.78-14.55Q165.28-15.45 165.28-18.3L165.28-18.3Q165.28-18.9 165.68-19.93 166.08-20.95 166.83-20.95ZM196.93-15L196.93-15 196.83-8.6Q196.83-1.95 198.28-0.6L198.28-0.6Q198.48-0.4 198.48-0.15L198.48-0.15Q198.48 0.6 195.25 0.6 192.03 0.6 191.83-1.3L191.83-1.3Q191.78-1.75 191.78-3.15L191.78-3.15 191.98-11.15Q191.98-11.5 191.58-11.5L191.58-11.5Q189.18-11.5 187.08-10.15 184.98-8.8 184.98-6.7L184.98-6.7Q184.98-5.6 185.58-4.85 186.18-4.1 187.05-4.1 187.93-4.1 188.5-4.45 189.08-4.8 189.18-4.85L189.18-4.85Q190.03-4.75 190.03-3.08 190.03-1.4 188.48-0.38 186.93 0.65 185.23 0.65 183.53 0.65 182.3 0.05 181.08-0.55 180.53-1.3 179.98-2.05 179.63-3L179.63-3Q179.28-4.15 179.28-5L179.28-5Q179.28-8.5 181.48-10.6 183.68-12.7 187.13-13.6L187.13-13.6Q191.68-14.5 191.88-15.25L191.88-15.25Q192.03-15.8 192.03-17.1L192.03-17.1Q192.03-19.75 189.33-19.75L189.33-19.75Q188.18-19.75 187.28-19.03 186.38-18.3 186.38-17.2L186.38-17.2 186.68-16Q186.58-15.15 184.88-15L184.88-15 184.33-14.95Q182.83-14.95 181.95-15.7 181.08-16.45 181.08-17.7L181.08-17.7Q181.08-18.5 181.6-19.48 182.13-20.45 182.93-21.05 183.73-21.65 185.4-22.13 187.08-22.6 188.63-22.6 190.18-22.6 191.03-22.5 191.88-22.4 193.35-22.03 194.83-21.65 195.8-20.6 196.78-19.55 196.85-18.38 196.93-17.2 196.93-15ZM206.73-28.6L206.73-28.6 206.43-10.25Q206.43-1.65 206.98 0.05L206.98 0.05Q207.13 0.35 207.13 0.65L207.13 0.65Q207.13 1.25 205.68 1.25 204.23 1.25 202.45 0.53 200.68-0.2 200.68-1.35L200.68-1.35Q201.68-8.35 201.68-20.05L201.68-20.05 201.48-27.7Q201.38-29.1 200.9-30.1 200.43-31.1 199.98-31.4L199.98-31.4 199.58-31.65Q199.23-31.85 199.23-32.1L199.23-32.1Q199.23-32.8 201.4-33.83 203.58-34.85 205.63-34.85L205.63-34.85Q206.43-34.85 206.53-34.3L206.53-34.3Q206.73-33 206.73-28.6Z" fill="#7e91c6" data-fill-palette-color="primary"></path></g></svg></g></svg></g></svg></g></svg></g><g transform="matrix(1,0,0,1,56.75545306915535,0)"><svg viewBox="0 0 130.92045386168928 130.92045386168928" height="130.92045386168928" width="130.92045386168928"><g><svg></svg></g><g id="icon-0"><svg viewBox="0 0 130.92045386168928 130.92045386168928" height="130.92045386168928" width="130.92045386168928"><g><path d="M0 65.46c0-36.153 29.308-65.46 65.46-65.46 36.153 0 65.46 29.308 65.46 65.46 0 36.153-29.308 65.46-65.46 65.46-36.153 0-65.46-29.308-65.46-65.46zM65.46 125.267c33.03 0 59.806-26.776 59.807-59.807 0-33.03-26.776-59.806-59.807-59.806-33.03 0-59.806 26.776-59.806 59.806 0 33.03 26.776 59.806 59.806 59.807z" data-fill-palette-color="accent" fill="#eb7043" stroke="transparent"></path><ellipse rx="64.8056246615362" ry="64.8056246615362" cx="65.46022693084464" cy="65.46022693084464" fill="#eb7043" stroke="transparent" stroke-width="0" fill-opacity="1" data-fill-palette-color="accent"></ellipse></g><g transform="matrix(1,0,0,1,28.625629012475244,28.625629012475244)"><svg viewBox="0 0 73.6691958367388 73.6691958367388" height="73.6691958367388" width="73.6691958367388"><g><svg xmlns="http://www.w3.org/2000/svg" xmlns:xlink="http://www.w3.org/1999/xlink" version="1.1" x="0" y="0" viewBox="15.209999999999997 15.21 59.58 59.57999999999999" enable-background="new 0 0 90 90" xml:space="preserve" height="73.6691958367388" width="73.6691958367388" class="icon-cg-0" data-fill-palette-color="quaternary" id="cg-0"><path d="M31.41 26.46c2.918-2.145 6.356-3.622 10.09-4.194V15.21c-5.661 0.658-10.839 2.892-15.088 6.252L31.41 26.46z" fill="#ffffff" data-fill-palette-color="quaternary"></path><path d="M22.266 41.5c0.573-3.734 2.049-7.172 4.194-10.09l-4.998-4.998c-3.36 4.25-5.594 9.427-6.252 15.088H22.266z" fill="#ffffff" data-fill-palette-color="quaternary"></path><path d="M68.538 26.412l-4.998 4.998c2.146 2.918 3.622 6.357 4.194 10.091h7.056C74.132 35.839 71.898 30.661 68.538 26.412z" fill="#ffffff" data-fill-palette-color="quaternary"></path><g fill="#ffffff" data-fill-palette-color="quaternary"><path d="M49.5 16.355c4.542 0.709 8.848 2.494 12.571 5.21l-3.592 3.591c-2.707-1.844-5.781-3.122-8.979-3.733V16.355M48.5 15.21v7.056c3.734 0.573 7.173 2.049 10.091 4.194l4.998-4.998C59.339 18.102 54.161 15.868 48.5 15.21L48.5 15.21z" fill="#ffffff" data-fill-palette-color="quaternary"></path></g><path d="M67.734 48.5c-0.572 3.734-2.049 7.173-4.194 10.091l4.998 4.998c3.36-4.25 5.594-9.428 6.252-15.089H67.734z" fill="#ffffff" data-fill-palette-color="quaternary"></path><path d="M58.591 63.54c-2.918 2.146-6.356 3.622-10.091 4.194v7.056c5.661-0.658 10.839-2.892 15.089-6.252L58.591 63.54z" fill="#ffffff" data-fill-palette-color="quaternary"></path><path d="M26.46 58.591c-2.145-2.918-3.622-6.356-4.194-10.091H15.21c0.658 5.661 2.892 10.839 6.252 15.089L26.46 58.591z" fill="#ffffff" data-fill-palette-color="quaternary"></path><path d="M41.5 67.734c-3.734-0.572-7.172-2.049-10.091-4.194l-4.998 4.998c4.25 3.36 9.427 5.594 15.088 6.252V67.734z" fill="#ffffff" data-fill-palette-color="quaternary"></path></svg></g></svg></g></svg></g></svg></g><g></g></svg></g></svg></g><g><path d="M175.661 37.086A83.644 83.644 0 0 1 219.859 37.086L215.989 37.086A79.775 79.775 0 0 0 179.531 37.086L175.661 37.086M175.661 210.114A83.644 83.644 0 0 0 219.859 210.114L215.989 210.114A79.775 79.775 0 0 1 179.531 210.114L175.661 210.114" fill="#7e91c6" stroke="transparent" data-fill-palette-color="tertiary"></path></g></svg></g><defs></defs></svg><rect width="395.52" height="247.2" fill="none" stroke="none" visibility="hidden"></rect></g></svg></g></svg>